<svg width="20" height="17" viewBox="0 0 20 17" fill="none" xmlns="http://www.w3.org/2000/svg">
<path d="M0.7 14V3.92H5.488C6.23467 3.92 6.874 4.05067 7.406 4.312C7.94733 4.57333 8.36267 4.93733 8.652 5.404C8.95067 5.87067 9.1 6.41667 9.1 7.042C9.1 7.66733 8.95067 8.218 8.652 8.694C8.35333 9.17 7.93333 9.54333 7.392 9.814C6.86 10.0753 6.22533 10.206 5.488 10.206H2.408V8.554H5.376C5.87067 8.554 6.25333 8.41867 6.524 8.148C6.804 7.868 6.944 7.504 6.944 7.056C6.944 6.608 6.804 6.24867 6.524 5.978C6.25333 5.70733 5.87067 5.572 5.376 5.572H2.856V14H0.7Z" fill="black"/>
<path d="M12.9851 14L9.37311 3.92H11.6131L14.3711 12.32H14.1051L16.8771 3.92H19.0051L15.3931 14H12.9851Z" fill="#FF5100"/>
</svg>
