<svg width="64" height="18" viewBox="0 0 64 18" fill="none" xmlns="http://www.w3.org/2000/svg">
<path d="M0.7 15V4.92H5.488C6.23467 4.92 6.874 5.05067 7.406 5.312C7.94733 5.57333 8.36267 5.93733 8.652 6.404C8.95067 6.87067 9.1 7.41667 9.1 8.042C9.1 8.66733 8.95067 9.218 8.652 9.694C8.35333 10.17 7.93333 10.5433 7.392 10.814C6.86 11.0753 6.22533 11.206 5.488 11.206H2.408V9.554H5.376C5.87067 9.554 6.25333 9.41867 6.524 9.148C6.804 8.868 6.944 8.504 6.944 8.056C6.944 7.608 6.804 7.24867 6.524 6.978C6.25333 6.70733 5.87067 6.572 5.376 6.572H2.856V15H0.7ZM13.2788 15.14C12.4948 15.14 11.8041 14.986 11.2068 14.678C10.6188 14.3607 10.1568 13.922 9.82078 13.362C9.49411 12.7927 9.33078 12.1393 9.33078 11.402C9.33078 10.6647 9.49411 10.0207 9.82078 9.47C10.1568 8.91933 10.6188 8.49 11.2068 8.182C11.8041 7.874 12.4948 7.72 13.2788 7.72C14.0721 7.72 14.7628 7.874 15.3508 8.182C15.9481 8.49 16.4101 8.91933 16.7368 9.47C17.0634 10.0207 17.2268 10.6647 17.2268 11.402C17.2268 12.1393 17.0588 12.7927 16.7228 13.362C16.3961 13.922 15.9341 14.3607 15.3368 14.678C14.7488 14.986 14.0628 15.14 13.2788 15.14ZM13.2788 13.488C13.6054 13.488 13.8994 13.404 14.1608 13.236C14.4314 13.068 14.6461 12.83 14.8048 12.522C14.9634 12.2047 15.0428 11.8267 15.0428 11.388C15.0428 10.744 14.8701 10.2493 14.5248 9.904C14.1888 9.54933 13.7734 9.372 13.2788 9.372C12.7841 9.372 12.3641 9.54933 12.0188 9.904C11.6828 10.2587 11.5148 10.7533 11.5148 11.388C11.5148 11.8267 11.5941 12.2047 11.7528 12.522C11.9114 12.83 12.1214 13.068 12.3828 13.236C12.6534 13.404 12.9521 13.488 13.2788 13.488ZM18.34 15V4.92H20.44V15H18.34ZM22.1134 15V4.92H24.2134V15H22.1134ZM38.5164 15.14C37.7231 15.14 37.0324 14.986 36.4444 14.678C35.8564 14.3607 35.3991 13.922 35.0724 13.362C34.7551 12.802 34.5964 12.158 34.5964 11.43C34.5964 10.6927 34.7551 10.0487 35.0724 9.498C35.3991 8.938 35.8517 8.504 36.4304 8.196C37.0091 7.87867 37.6811 7.72 38.4464 7.72C39.1837 7.72 39.8231 7.86933 40.3644 8.168C40.9057 8.46667 41.3257 8.882 41.6244 9.414C41.9231 9.946 42.0724 10.5713 42.0724 11.29C42.0724 11.4393 42.0677 11.5793 42.0584 11.71C42.0491 11.8313 42.0351 11.948 42.0164 12.06H35.8284V10.674H40.3224L39.9584 10.926C39.9584 10.3473 39.8184 9.92267 39.5384 9.652C39.2677 9.372 38.8944 9.232 38.4184 9.232C37.8677 9.232 37.4384 9.41867 37.1304 9.792C36.8317 10.1653 36.6824 10.7253 36.6824 11.472C36.6824 12.2 36.8317 12.7413 37.1304 13.096C37.4384 13.4507 37.8957 13.628 38.5024 13.628C38.8384 13.628 39.1277 13.572 39.3704 13.46C39.6131 13.348 39.7951 13.166 39.9164 12.914H41.8904C41.6571 13.6047 41.2557 14.1507 40.6864 14.552C40.1264 14.944 39.4031 15.14 38.5164 15.14ZM43.1955 15V7.86H45.2535V9.54H45.2955V15H43.1955ZM45.2955 11.276L45.1135 9.582C45.2815 8.97533 45.5568 8.51333 45.9395 8.196C46.3221 7.87867 46.7981 7.72 47.3675 7.72C47.5448 7.72 47.6755 7.73867 47.7595 7.776V9.736C47.7128 9.71733 47.6475 9.708 47.5635 9.708C47.4795 9.69867 47.3768 9.694 47.2555 9.694C46.5835 9.694 46.0888 9.81533 45.7715 10.058C45.4541 10.2913 45.2955 10.6973 45.2955 11.276ZM51.5756 15.14C50.5302 15.14 49.6996 14.93 49.0836 14.51C48.4676 14.09 48.1316 13.5113 48.0756 12.774H49.9516C49.9982 13.0913 50.1569 13.334 50.4276 13.502C50.7076 13.6607 51.0902 13.74 51.5756 13.74C52.0142 13.74 52.3316 13.6793 52.5276 13.558C52.7329 13.4273 52.8356 13.2453 52.8356 13.012C52.8356 12.8347 52.7749 12.6993 52.6536 12.606C52.5416 12.5033 52.3316 12.4193 52.0236 12.354L50.8756 12.116C50.0262 11.9387 49.4009 11.6727 48.9996 11.318C48.5982 10.954 48.3976 10.4873 48.3976 9.918C48.3976 9.22733 48.6636 8.69067 49.1956 8.308C49.7276 7.916 50.4696 7.72 51.4216 7.72C52.3642 7.72 53.1156 7.91133 53.6756 8.294C54.2356 8.66733 54.5436 9.19 54.5996 9.862H52.7236C52.6862 9.61933 52.5556 9.43733 52.3316 9.316C52.1076 9.18533 51.7902 9.12 51.3796 9.12C51.0062 9.12 50.7262 9.176 50.5396 9.288C50.3622 9.39067 50.2736 9.54 50.2736 9.736C50.2736 9.904 50.3482 10.0393 50.4976 10.142C50.6469 10.2353 50.8942 10.3193 51.2396 10.394L52.5276 10.66C53.2462 10.8093 53.7876 11.0893 54.1516 11.5C54.5249 11.9013 54.7116 12.3773 54.7116 12.928C54.7116 13.628 54.4362 14.174 53.8856 14.566C53.3442 14.9487 52.5742 15.14 51.5756 15.14ZM59.3523 15.14C58.559 15.14 57.8683 14.986 57.2803 14.678C56.6923 14.3607 56.235 13.922 55.9083 13.362C55.591 12.802 55.4323 12.158 55.4323 11.43C55.4323 10.6927 55.591 10.0487 55.9083 9.498C56.235 8.938 56.6877 8.504 57.2663 8.196C57.845 7.87867 58.517 7.72 59.2823 7.72C60.0197 7.72 60.659 7.86933 61.2003 8.168C61.7417 8.46667 62.1617 8.882 62.4603 9.414C62.759 9.946 62.9083 10.5713 62.9083 11.29C62.9083 11.4393 62.9037 11.5793 62.8943 11.71C62.885 11.8313 62.871 11.948 62.8523 12.06H56.6643V10.674H61.1583L60.7943 10.926C60.7943 10.3473 60.6543 9.92267 60.3743 9.652C60.1037 9.372 59.7303 9.232 59.2543 9.232C58.7037 9.232 58.2743 9.41867 57.9663 9.792C57.6677 10.1653 57.5183 10.7253 57.5183 11.472C57.5183 12.2 57.6677 12.7413 57.9663 13.096C58.2743 13.4507 58.7317 13.628 59.3383 13.628C59.6743 13.628 59.9637 13.572 60.2063 13.46C60.449 13.348 60.631 13.166 60.7523 12.914H62.7263C62.493 13.6047 62.0917 14.1507 61.5223 14.552C60.9623 14.944 60.239 15.14 59.3523 15.14Z" fill="black"/>
<path d="M28.9949 15L25.3829 4.92H27.6229L30.3809 13.32H30.1149L32.8869 4.92H35.0149L31.4029 15H28.9949Z" fill="#FF5100"/>
<path fill-rule="evenodd" clip-rule="evenodd" d="M56.9488 6.15869C56.7535 6.38183 56.437 6.38183 56.2417 6.15869C56.0464 5.93549 56.0464 5.5737 56.2417 5.35055L57.9079 3.44629L57.9115 3.44227C58.0476 3.28977 58.2306 3.20435 58.4212 3.20435C58.6119 3.20435 58.7949 3.28977 58.931 3.44227L58.9346 3.44629L59.7852 4.41839L60.9585 2.99984L60.4386 2.40564C60.3313 2.28307 60.2993 2.09874 60.3573 1.93859C60.4153 1.77844 60.5521 1.67403 60.7038 1.67403H62.5297C62.7368 1.67403 62.9047 1.86591 62.9047 2.1026V4.18946C62.9047 4.3628 62.8134 4.51907 62.6733 4.5854C62.5332 4.65174 62.3719 4.61507 62.2646 4.4925L61.6659 3.80828L60.3139 5.44284C60.3095 5.44811 60.3051 5.4533 60.3005 5.45838C60.1644 5.61087 59.9814 5.69629 59.7908 5.69629C59.6001 5.69629 59.4171 5.61087 59.281 5.45838L59.2774 5.45435L58.4212 4.47587L56.9488 6.15869Z" fill="black"/>
</svg>
